<mxfile host="app.diagrams.net" modified="2024-02-13T15:17:02.834Z" agent="Mozilla/5.0 (Windows NT 10.0; Win64; x64) AppleWebKit/537.36 (KHTML, like Gecko) Chrome/120.0.0.0 Safari/537.36" etag="yEMESXmEzOtqsoKE2I3J" version="21.5.1" type="device">
  <diagram id="C5RBs43oDa-KdzZeNtuy" name="Page-1">
    <mxGraphModel dx="1434" dy="780" grid="1" gridSize="10" guides="1" tooltips="1" connect="1" arrows="1" fold="1" page="1" pageScale="1" pageWidth="827" pageHeight="1169" math="0" shadow="0">
      <root>
        <mxCell id="WIyWlLk6GJQsqaUBKTNV-0" />
        <mxCell id="WIyWlLk6GJQsqaUBKTNV-1" parent="WIyWlLk6GJQsqaUBKTNV-0" />
        <mxCell id="WIyWlLk6GJQsqaUBKTNV-2" value="" style="rounded=0;html=1;jettySize=auto;orthogonalLoop=1;fontSize=11;endArrow=block;endFill=0;endSize=8;strokeWidth=1;shadow=0;labelBackgroundColor=none;edgeStyle=orthogonalEdgeStyle;" parent="WIyWlLk6GJQsqaUBKTNV-1" source="WIyWlLk6GJQsqaUBKTNV-3" target="WIyWlLk6GJQsqaUBKTNV-6" edge="1">
          <mxGeometry relative="1" as="geometry" />
        </mxCell>
        <mxCell id="WIyWlLk6GJQsqaUBKTNV-3" value="Fenêtre des antécédents" style="rounded=1;whiteSpace=wrap;html=1;fontSize=12;glass=0;strokeWidth=1;shadow=0;" parent="WIyWlLk6GJQsqaUBKTNV-1" vertex="1">
          <mxGeometry x="53" y="80" width="120" height="40" as="geometry" />
        </mxCell>
        <mxCell id="WIyWlLk6GJQsqaUBKTNV-4" value="Non" style="rounded=0;html=1;jettySize=auto;orthogonalLoop=1;fontSize=11;endArrow=block;endFill=0;endSize=8;strokeWidth=1;shadow=0;labelBackgroundColor=none;edgeStyle=orthogonalEdgeStyle;" parent="WIyWlLk6GJQsqaUBKTNV-1" source="WIyWlLk6GJQsqaUBKTNV-6" target="WIyWlLk6GJQsqaUBKTNV-10" edge="1">
          <mxGeometry y="20" relative="1" as="geometry">
            <mxPoint as="offset" />
          </mxGeometry>
        </mxCell>
        <mxCell id="WIyWlLk6GJQsqaUBKTNV-5" value="Oui" style="edgeStyle=orthogonalEdgeStyle;rounded=0;html=1;jettySize=auto;orthogonalLoop=1;fontSize=11;endArrow=block;endFill=0;endSize=8;strokeWidth=1;shadow=0;labelBackgroundColor=none;" parent="WIyWlLk6GJQsqaUBKTNV-1" source="WIyWlLk6GJQsqaUBKTNV-6" target="WIyWlLk6GJQsqaUBKTNV-7" edge="1">
          <mxGeometry y="10" relative="1" as="geometry">
            <mxPoint as="offset" />
          </mxGeometry>
        </mxCell>
        <mxCell id="WIyWlLk6GJQsqaUBKTNV-6" value="Diabète" style="rhombus;whiteSpace=wrap;html=1;shadow=0;fontFamily=Helvetica;fontSize=12;align=center;strokeWidth=1;spacing=6;spacingTop=-4;" parent="WIyWlLk6GJQsqaUBKTNV-1" vertex="1">
          <mxGeometry x="63" y="170" width="100" height="80" as="geometry" />
        </mxCell>
        <mxCell id="WIyWlLk6GJQsqaUBKTNV-7" value="Saisir le type du diabète" style="rounded=1;whiteSpace=wrap;html=1;fontSize=12;glass=0;strokeWidth=1;shadow=0;" parent="WIyWlLk6GJQsqaUBKTNV-1" vertex="1">
          <mxGeometry x="213" y="190" width="120" height="40" as="geometry" />
        </mxCell>
        <mxCell id="WIyWlLk6GJQsqaUBKTNV-8" value="" style="rounded=0;html=1;jettySize=auto;orthogonalLoop=1;fontSize=11;endArrow=block;endFill=0;endSize=8;strokeWidth=1;shadow=0;labelBackgroundColor=none;edgeStyle=orthogonalEdgeStyle;" parent="WIyWlLk6GJQsqaUBKTNV-1" source="WIyWlLk6GJQsqaUBKTNV-10" target="mJ4_-zEkmCMwK1RZlJ_X-1" edge="1">
          <mxGeometry x="0.3333" y="20" relative="1" as="geometry">
            <mxPoint as="offset" />
            <mxPoint x="113" y="430" as="targetPoint" />
          </mxGeometry>
        </mxCell>
        <mxCell id="WIyWlLk6GJQsqaUBKTNV-10" value="UDG" style="rhombus;whiteSpace=wrap;html=1;shadow=0;fontFamily=Helvetica;fontSize=12;align=center;strokeWidth=1;spacing=6;spacingTop=-4;" parent="WIyWlLk6GJQsqaUBKTNV-1" vertex="1">
          <mxGeometry x="63" y="280" width="100" height="80" as="geometry" />
        </mxCell>
        <mxCell id="mJ4_-zEkmCMwK1RZlJ_X-1" value="HTA" style="rhombus;whiteSpace=wrap;html=1;shadow=0;fontFamily=Helvetica;fontSize=12;align=center;strokeWidth=1;spacing=6;spacingTop=-4;" parent="WIyWlLk6GJQsqaUBKTNV-1" vertex="1">
          <mxGeometry x="63" y="390" width="100" height="80" as="geometry" />
        </mxCell>
        <mxCell id="mJ4_-zEkmCMwK1RZlJ_X-4" value="Asthme" style="rhombus;whiteSpace=wrap;html=1;shadow=0;fontFamily=Helvetica;fontSize=12;align=center;strokeWidth=1;spacing=6;spacingTop=-4;" parent="WIyWlLk6GJQsqaUBKTNV-1" vertex="1">
          <mxGeometry x="62" y="507" width="100" height="80" as="geometry" />
        </mxCell>
        <mxCell id="mJ4_-zEkmCMwK1RZlJ_X-8" value="" style="rounded=0;html=1;jettySize=auto;orthogonalLoop=1;fontSize=11;endArrow=block;endFill=0;endSize=8;strokeWidth=1;shadow=0;labelBackgroundColor=none;edgeStyle=orthogonalEdgeStyle;entryX=0.5;entryY=0;entryDx=0;entryDy=0;" parent="WIyWlLk6GJQsqaUBKTNV-1" target="mJ4_-zEkmCMwK1RZlJ_X-4" edge="1">
          <mxGeometry x="0.3333" y="20" relative="1" as="geometry">
            <mxPoint as="offset" />
            <mxPoint x="113" y="470" as="sourcePoint" />
            <mxPoint x="123" y="400" as="targetPoint" />
          </mxGeometry>
        </mxCell>
        <mxCell id="mJ4_-zEkmCMwK1RZlJ_X-18" value="" style="edgeStyle=orthogonalEdgeStyle;rounded=0;orthogonalLoop=1;jettySize=auto;html=1;endArrow=block;endFill=0;endSize=8;" parent="WIyWlLk6GJQsqaUBKTNV-1" source="mJ4_-zEkmCMwK1RZlJ_X-9" target="mJ4_-zEkmCMwK1RZlJ_X-17" edge="1">
          <mxGeometry relative="1" as="geometry" />
        </mxCell>
        <mxCell id="mJ4_-zEkmCMwK1RZlJ_X-19" value="Non" style="edgeLabel;html=1;align=center;verticalAlign=middle;resizable=0;points=[];" parent="mJ4_-zEkmCMwK1RZlJ_X-18" vertex="1" connectable="0">
          <mxGeometry x="0.199" y="2" relative="1" as="geometry">
            <mxPoint x="14" y="3" as="offset" />
          </mxGeometry>
        </mxCell>
        <mxCell id="mJ4_-zEkmCMwK1RZlJ_X-9" value="Drépanocytose" style="rhombus;whiteSpace=wrap;html=1;shadow=0;fontFamily=Helvetica;fontSize=12;align=center;strokeWidth=1;spacing=6;spacingTop=-4;" parent="WIyWlLk6GJQsqaUBKTNV-1" vertex="1">
          <mxGeometry x="62" y="623" width="100" height="80" as="geometry" />
        </mxCell>
        <mxCell id="mJ4_-zEkmCMwK1RZlJ_X-10" value="" style="rounded=0;html=1;jettySize=auto;orthogonalLoop=1;fontSize=11;endArrow=block;endFill=0;endSize=8;strokeWidth=1;shadow=0;labelBackgroundColor=none;edgeStyle=orthogonalEdgeStyle;entryX=0.5;entryY=0;entryDx=0;entryDy=0;" parent="WIyWlLk6GJQsqaUBKTNV-1" target="mJ4_-zEkmCMwK1RZlJ_X-9" edge="1">
          <mxGeometry x="0.3333" y="20" relative="1" as="geometry">
            <mxPoint as="offset" />
            <mxPoint x="113" y="585" as="sourcePoint" />
            <mxPoint x="123" y="515" as="targetPoint" />
          </mxGeometry>
        </mxCell>
        <mxCell id="mJ4_-zEkmCMwK1RZlJ_X-14" value="Oui" style="edgeStyle=orthogonalEdgeStyle;rounded=0;html=1;jettySize=auto;orthogonalLoop=1;fontSize=11;endArrow=block;endFill=0;endSize=8;strokeWidth=1;shadow=0;labelBackgroundColor=none;exitX=1;exitY=0.5;exitDx=0;exitDy=0;" parent="WIyWlLk6GJQsqaUBKTNV-1" source="mJ4_-zEkmCMwK1RZlJ_X-9" target="mJ4_-zEkmCMwK1RZlJ_X-15" edge="1">
          <mxGeometry y="10" relative="1" as="geometry">
            <mxPoint as="offset" />
            <mxPoint x="193" y="643" as="sourcePoint" />
          </mxGeometry>
        </mxCell>
        <mxCell id="mJ4_-zEkmCMwK1RZlJ_X-15" value="Saisir l&#39;hemoglobine" style="rounded=1;whiteSpace=wrap;html=1;fontSize=12;glass=0;strokeWidth=1;shadow=0;" parent="WIyWlLk6GJQsqaUBKTNV-1" vertex="1">
          <mxGeometry x="223" y="643" width="120" height="40" as="geometry" />
        </mxCell>
        <mxCell id="mJ4_-zEkmCMwK1RZlJ_X-17" value="Alcoolisme" style="rhombus;whiteSpace=wrap;html=1;shadow=0;fontFamily=Helvetica;fontSize=12;align=center;strokeWidth=1;spacing=6;spacingTop=-4;" parent="WIyWlLk6GJQsqaUBKTNV-1" vertex="1">
          <mxGeometry x="62" y="760" width="100" height="80" as="geometry" />
        </mxCell>
        <mxCell id="mJ4_-zEkmCMwK1RZlJ_X-23" value="" style="edgeStyle=orthogonalEdgeStyle;rounded=0;orthogonalLoop=1;jettySize=auto;html=1;endArrow=block;endFill=0;endSize=8;" parent="WIyWlLk6GJQsqaUBKTNV-1" source="mJ4_-zEkmCMwK1RZlJ_X-20" target="mJ4_-zEkmCMwK1RZlJ_X-22" edge="1">
          <mxGeometry relative="1" as="geometry" />
        </mxCell>
        <mxCell id="mJ4_-zEkmCMwK1RZlJ_X-38" value="Oui" style="edgeLabel;html=1;align=center;verticalAlign=middle;resizable=0;points=[];" parent="mJ4_-zEkmCMwK1RZlJ_X-23" vertex="1" connectable="0">
          <mxGeometry x="-0.0126" relative="1" as="geometry">
            <mxPoint x="-10" y="-11" as="offset" />
          </mxGeometry>
        </mxCell>
        <mxCell id="mJ4_-zEkmCMwK1RZlJ_X-37" value="" style="edgeStyle=orthogonalEdgeStyle;rounded=0;orthogonalLoop=1;jettySize=auto;html=1;endArrow=block;endFill=0;endSize=8;" parent="WIyWlLk6GJQsqaUBKTNV-1" source="mJ4_-zEkmCMwK1RZlJ_X-20" target="mJ4_-zEkmCMwK1RZlJ_X-36" edge="1">
          <mxGeometry relative="1" as="geometry" />
        </mxCell>
        <mxCell id="mJ4_-zEkmCMwK1RZlJ_X-39" value="Non" style="edgeLabel;html=1;align=center;verticalAlign=middle;resizable=0;points=[];" parent="mJ4_-zEkmCMwK1RZlJ_X-37" vertex="1" connectable="0">
          <mxGeometry x="0.1362" y="-2" relative="1" as="geometry">
            <mxPoint x="18" y="-26" as="offset" />
          </mxGeometry>
        </mxCell>
        <mxCell id="mJ4_-zEkmCMwK1RZlJ_X-20" value="Tabagisme" style="rhombus;whiteSpace=wrap;html=1;shadow=0;fontFamily=Helvetica;fontSize=12;align=center;strokeWidth=1;spacing=6;spacingTop=-4;" parent="WIyWlLk6GJQsqaUBKTNV-1" vertex="1">
          <mxGeometry x="62" y="920" width="100" height="80" as="geometry" />
        </mxCell>
        <mxCell id="mJ4_-zEkmCMwK1RZlJ_X-27" value="" style="edgeStyle=orthogonalEdgeStyle;rounded=0;orthogonalLoop=1;jettySize=auto;html=1;endArrow=block;endFill=0;endSize=8;" parent="WIyWlLk6GJQsqaUBKTNV-1" source="mJ4_-zEkmCMwK1RZlJ_X-22" target="mJ4_-zEkmCMwK1RZlJ_X-26" edge="1">
          <mxGeometry relative="1" as="geometry" />
        </mxCell>
        <mxCell id="mJ4_-zEkmCMwK1RZlJ_X-22" value="Saisir la fréquence" style="whiteSpace=wrap;html=1;shadow=0;strokeWidth=1;spacing=6;spacingTop=-4;rounded=1;" parent="WIyWlLk6GJQsqaUBKTNV-1" vertex="1">
          <mxGeometry x="232" y="941" width="120" height="40" as="geometry" />
        </mxCell>
        <mxCell id="mJ4_-zEkmCMwK1RZlJ_X-29" value="" style="edgeStyle=orthogonalEdgeStyle;rounded=0;orthogonalLoop=1;jettySize=auto;html=1;endArrow=block;endFill=0;endSize=8;" parent="WIyWlLk6GJQsqaUBKTNV-1" source="mJ4_-zEkmCMwK1RZlJ_X-26" target="mJ4_-zEkmCMwK1RZlJ_X-28" edge="1">
          <mxGeometry relative="1" as="geometry" />
        </mxCell>
        <mxCell id="mJ4_-zEkmCMwK1RZlJ_X-26" value="Nombre" style="ellipse;whiteSpace=wrap;html=1;shadow=0;strokeWidth=1;spacing=6;spacingTop=-4;rounded=1;" parent="WIyWlLk6GJQsqaUBKTNV-1" vertex="1">
          <mxGeometry x="393" y="940" width="100" height="41" as="geometry" />
        </mxCell>
        <mxCell id="mJ4_-zEkmCMwK1RZlJ_X-31" value="" style="edgeStyle=orthogonalEdgeStyle;rounded=0;orthogonalLoop=1;jettySize=auto;html=1;endArrow=block;endFill=0;endSize=8;" parent="WIyWlLk6GJQsqaUBKTNV-1" source="mJ4_-zEkmCMwK1RZlJ_X-28" target="mJ4_-zEkmCMwK1RZlJ_X-30" edge="1">
          <mxGeometry relative="1" as="geometry" />
        </mxCell>
        <mxCell id="mJ4_-zEkmCMwK1RZlJ_X-28" value="mesure&lt;br&gt;(unités, paquets...)" style="ellipse;whiteSpace=wrap;html=1;shadow=0;strokeWidth=1;spacing=6;spacingTop=-4;rounded=1;" parent="WIyWlLk6GJQsqaUBKTNV-1" vertex="1">
          <mxGeometry x="535" y="940" width="100" height="41" as="geometry" />
        </mxCell>
        <mxCell id="mJ4_-zEkmCMwK1RZlJ_X-30" value="rythme&lt;br&gt;(heure, jour...)" style="ellipse;whiteSpace=wrap;html=1;shadow=0;strokeWidth=1;spacing=6;spacingTop=-4;rounded=1;" parent="WIyWlLk6GJQsqaUBKTNV-1" vertex="1">
          <mxGeometry x="683" y="940" width="100" height="41" as="geometry" />
        </mxCell>
        <mxCell id="mJ4_-zEkmCMwK1RZlJ_X-34" value="" style="edgeStyle=orthogonalEdgeStyle;rounded=0;orthogonalLoop=1;jettySize=auto;html=1;endArrow=block;endFill=0;endSize=8;entryX=0.5;entryY=0;entryDx=0;entryDy=0;" parent="WIyWlLk6GJQsqaUBKTNV-1" target="mJ4_-zEkmCMwK1RZlJ_X-20" edge="1">
          <mxGeometry relative="1" as="geometry">
            <mxPoint x="111.66" y="840" as="sourcePoint" />
            <mxPoint x="143" y="890" as="targetPoint" />
          </mxGeometry>
        </mxCell>
        <mxCell id="mJ4_-zEkmCMwK1RZlJ_X-41" value="" style="edgeStyle=orthogonalEdgeStyle;rounded=0;orthogonalLoop=1;jettySize=auto;html=1;endArrow=block;endFill=0;endSize=8;" parent="WIyWlLk6GJQsqaUBKTNV-1" source="mJ4_-zEkmCMwK1RZlJ_X-36" edge="1">
          <mxGeometry relative="1" as="geometry">
            <mxPoint x="112" y="1240" as="targetPoint" />
          </mxGeometry>
        </mxCell>
        <mxCell id="mJ4_-zEkmCMwK1RZlJ_X-53" value="Non" style="edgeLabel;html=1;align=center;verticalAlign=middle;resizable=0;points=[];" parent="mJ4_-zEkmCMwK1RZlJ_X-41" vertex="1" connectable="0">
          <mxGeometry x="-0.5017" y="-2" relative="1" as="geometry">
            <mxPoint x="15" y="-2" as="offset" />
          </mxGeometry>
        </mxCell>
        <mxCell id="mJ4_-zEkmCMwK1RZlJ_X-43" value="" style="edgeStyle=orthogonalEdgeStyle;rounded=0;orthogonalLoop=1;jettySize=auto;html=1;endArrow=block;endFill=0;endSize=8;" parent="WIyWlLk6GJQsqaUBKTNV-1" source="mJ4_-zEkmCMwK1RZlJ_X-36" target="mJ4_-zEkmCMwK1RZlJ_X-42" edge="1">
          <mxGeometry relative="1" as="geometry" />
        </mxCell>
        <mxCell id="mJ4_-zEkmCMwK1RZlJ_X-36" value="Médicaments ?" style="rhombus;whiteSpace=wrap;html=1;shadow=0;fontFamily=Helvetica;fontSize=12;align=center;strokeWidth=1;spacing=6;spacingTop=-4;" parent="WIyWlLk6GJQsqaUBKTNV-1" vertex="1">
          <mxGeometry x="62" y="1080" width="100" height="80" as="geometry" />
        </mxCell>
        <mxCell id="mJ4_-zEkmCMwK1RZlJ_X-45" value="" style="edgeStyle=orthogonalEdgeStyle;rounded=0;orthogonalLoop=1;jettySize=auto;html=1;endArrow=block;endFill=0;endSize=8;" parent="WIyWlLk6GJQsqaUBKTNV-1" source="mJ4_-zEkmCMwK1RZlJ_X-42" target="mJ4_-zEkmCMwK1RZlJ_X-44" edge="1">
          <mxGeometry relative="1" as="geometry" />
        </mxCell>
        <mxCell id="mJ4_-zEkmCMwK1RZlJ_X-42" value="Saisir le nombre" style="whiteSpace=wrap;html=1;shadow=0;strokeWidth=1;spacing=6;spacingTop=-4;rounded=1;" parent="WIyWlLk6GJQsqaUBKTNV-1" vertex="1">
          <mxGeometry x="213" y="1100" width="120" height="40" as="geometry" />
        </mxCell>
        <mxCell id="mJ4_-zEkmCMwK1RZlJ_X-47" value="" style="edgeStyle=orthogonalEdgeStyle;rounded=0;orthogonalLoop=1;jettySize=auto;html=1;endArrow=block;endFill=0;endSize=8;" parent="WIyWlLk6GJQsqaUBKTNV-1" source="mJ4_-zEkmCMwK1RZlJ_X-44" target="mJ4_-zEkmCMwK1RZlJ_X-46" edge="1">
          <mxGeometry relative="1" as="geometry" />
        </mxCell>
        <mxCell id="mJ4_-zEkmCMwK1RZlJ_X-48" value="Oui" style="edgeLabel;html=1;align=center;verticalAlign=middle;resizable=0;points=[];" parent="mJ4_-zEkmCMwK1RZlJ_X-47" vertex="1" connectable="0">
          <mxGeometry x="-0.0751" relative="1" as="geometry">
            <mxPoint x="-15" y="-12" as="offset" />
          </mxGeometry>
        </mxCell>
        <mxCell id="mJ4_-zEkmCMwK1RZlJ_X-50" value="" style="edgeStyle=orthogonalEdgeStyle;rounded=0;orthogonalLoop=1;jettySize=auto;html=1;endArrow=block;endFill=0;endSize=8;" parent="WIyWlLk6GJQsqaUBKTNV-1" source="mJ4_-zEkmCMwK1RZlJ_X-44" target="mJ4_-zEkmCMwK1RZlJ_X-57" edge="1">
          <mxGeometry relative="1" as="geometry">
            <mxPoint x="112" y="1240" as="targetPoint" />
            <Array as="points">
              <mxPoint x="463" y="1190" />
              <mxPoint x="112" y="1190" />
            </Array>
          </mxGeometry>
        </mxCell>
        <mxCell id="mJ4_-zEkmCMwK1RZlJ_X-52" value="Non" style="edgeLabel;html=1;align=center;verticalAlign=middle;resizable=0;points=[];" parent="mJ4_-zEkmCMwK1RZlJ_X-50" vertex="1" connectable="0">
          <mxGeometry x="-0.8841" y="-2" relative="1" as="geometry">
            <mxPoint x="-12" as="offset" />
          </mxGeometry>
        </mxCell>
        <mxCell id="mJ4_-zEkmCMwK1RZlJ_X-44" value="Saisir la liste des médicaments" style="rhombus;whiteSpace=wrap;html=1;shadow=0;strokeWidth=1;spacing=6;spacingTop=-4;rounded=0;" parent="WIyWlLk6GJQsqaUBKTNV-1" vertex="1">
          <mxGeometry x="388" y="1086" width="150" height="70" as="geometry" />
        </mxCell>
        <mxCell id="mJ4_-zEkmCMwK1RZlJ_X-46" value="Afficher un popup pour saisir la liste des médicaments." style="whiteSpace=wrap;html=1;shadow=0;strokeWidth=1;spacing=6;spacingTop=-4;rounded=0;" parent="WIyWlLk6GJQsqaUBKTNV-1" vertex="1">
          <mxGeometry x="633" y="1091" width="120" height="60" as="geometry" />
        </mxCell>
        <mxCell id="mJ4_-zEkmCMwK1RZlJ_X-54" value="" style="edgeStyle=orthogonalEdgeStyle;rounded=0;orthogonalLoop=1;jettySize=auto;html=1;endArrow=block;endFill=0;endSize=8;" parent="WIyWlLk6GJQsqaUBKTNV-1" source="mJ4_-zEkmCMwK1RZlJ_X-57" edge="1">
          <mxGeometry relative="1" as="geometry">
            <mxPoint x="112" y="1400" as="targetPoint" />
          </mxGeometry>
        </mxCell>
        <mxCell id="mJ4_-zEkmCMwK1RZlJ_X-55" value="Non" style="edgeLabel;html=1;align=center;verticalAlign=middle;resizable=0;points=[];" parent="mJ4_-zEkmCMwK1RZlJ_X-54" vertex="1" connectable="0">
          <mxGeometry x="-0.5017" y="-2" relative="1" as="geometry">
            <mxPoint x="15" y="-2" as="offset" />
          </mxGeometry>
        </mxCell>
        <mxCell id="mJ4_-zEkmCMwK1RZlJ_X-56" value="" style="edgeStyle=orthogonalEdgeStyle;rounded=0;orthogonalLoop=1;jettySize=auto;html=1;endArrow=block;endFill=0;endSize=8;" parent="WIyWlLk6GJQsqaUBKTNV-1" source="mJ4_-zEkmCMwK1RZlJ_X-57" target="mJ4_-zEkmCMwK1RZlJ_X-59" edge="1">
          <mxGeometry relative="1" as="geometry" />
        </mxCell>
        <mxCell id="mJ4_-zEkmCMwK1RZlJ_X-57" value="Interventions" style="rhombus;whiteSpace=wrap;html=1;shadow=0;fontFamily=Helvetica;fontSize=12;align=center;strokeWidth=1;spacing=6;spacingTop=-4;" parent="WIyWlLk6GJQsqaUBKTNV-1" vertex="1">
          <mxGeometry x="62" y="1240" width="100" height="80" as="geometry" />
        </mxCell>
        <mxCell id="mJ4_-zEkmCMwK1RZlJ_X-58" value="" style="edgeStyle=orthogonalEdgeStyle;rounded=0;orthogonalLoop=1;jettySize=auto;html=1;endArrow=block;endFill=0;endSize=8;" parent="WIyWlLk6GJQsqaUBKTNV-1" source="mJ4_-zEkmCMwK1RZlJ_X-59" target="mJ4_-zEkmCMwK1RZlJ_X-64" edge="1">
          <mxGeometry relative="1" as="geometry" />
        </mxCell>
        <mxCell id="mJ4_-zEkmCMwK1RZlJ_X-59" value="Saisir le nombre" style="whiteSpace=wrap;html=1;shadow=0;strokeWidth=1;spacing=6;spacingTop=-4;rounded=1;" parent="WIyWlLk6GJQsqaUBKTNV-1" vertex="1">
          <mxGeometry x="213" y="1260" width="120" height="40" as="geometry" />
        </mxCell>
        <mxCell id="mJ4_-zEkmCMwK1RZlJ_X-60" value="" style="edgeStyle=orthogonalEdgeStyle;rounded=0;orthogonalLoop=1;jettySize=auto;html=1;endArrow=block;endFill=0;endSize=8;" parent="WIyWlLk6GJQsqaUBKTNV-1" source="mJ4_-zEkmCMwK1RZlJ_X-64" target="mJ4_-zEkmCMwK1RZlJ_X-65" edge="1">
          <mxGeometry relative="1" as="geometry" />
        </mxCell>
        <mxCell id="mJ4_-zEkmCMwK1RZlJ_X-61" value="Oui" style="edgeLabel;html=1;align=center;verticalAlign=middle;resizable=0;points=[];" parent="mJ4_-zEkmCMwK1RZlJ_X-60" vertex="1" connectable="0">
          <mxGeometry x="-0.0751" relative="1" as="geometry">
            <mxPoint x="-15" y="-12" as="offset" />
          </mxGeometry>
        </mxCell>
        <mxCell id="mJ4_-zEkmCMwK1RZlJ_X-62" value="" style="edgeStyle=orthogonalEdgeStyle;rounded=0;orthogonalLoop=1;jettySize=auto;html=1;entryX=0.5;entryY=0;entryDx=0;entryDy=0;endArrow=block;endFill=0;endSize=8;" parent="WIyWlLk6GJQsqaUBKTNV-1" source="mJ4_-zEkmCMwK1RZlJ_X-64" target="mJ4_-zEkmCMwK1RZlJ_X-69" edge="1">
          <mxGeometry relative="1" as="geometry">
            <mxPoint x="112" y="1400" as="targetPoint" />
            <Array as="points">
              <mxPoint x="463" y="1350" />
              <mxPoint x="112" y="1350" />
            </Array>
          </mxGeometry>
        </mxCell>
        <mxCell id="mJ4_-zEkmCMwK1RZlJ_X-63" value="Non" style="edgeLabel;html=1;align=center;verticalAlign=middle;resizable=0;points=[];" parent="mJ4_-zEkmCMwK1RZlJ_X-62" vertex="1" connectable="0">
          <mxGeometry x="-0.8841" y="-2" relative="1" as="geometry">
            <mxPoint x="-12" as="offset" />
          </mxGeometry>
        </mxCell>
        <mxCell id="mJ4_-zEkmCMwK1RZlJ_X-64" value="Saisir la liste des interventions" style="rhombus;whiteSpace=wrap;html=1;shadow=0;strokeWidth=1;spacing=6;spacingTop=-4;rounded=0;" parent="WIyWlLk6GJQsqaUBKTNV-1" vertex="1">
          <mxGeometry x="388" y="1246" width="150" height="70" as="geometry" />
        </mxCell>
        <mxCell id="mJ4_-zEkmCMwK1RZlJ_X-65" value="Afficher un popup pour saisir la liste des interventions." style="whiteSpace=wrap;html=1;shadow=0;strokeWidth=1;spacing=6;spacingTop=-4;rounded=0;" parent="WIyWlLk6GJQsqaUBKTNV-1" vertex="1">
          <mxGeometry x="633" y="1251" width="120" height="60" as="geometry" />
        </mxCell>
        <mxCell id="mJ4_-zEkmCMwK1RZlJ_X-66" value="" style="edgeStyle=orthogonalEdgeStyle;rounded=0;orthogonalLoop=1;jettySize=auto;html=1;endArrow=block;endFill=0;endSize=8;" parent="WIyWlLk6GJQsqaUBKTNV-1" source="mJ4_-zEkmCMwK1RZlJ_X-69" edge="1">
          <mxGeometry relative="1" as="geometry">
            <mxPoint x="112" y="1560" as="targetPoint" />
          </mxGeometry>
        </mxCell>
        <mxCell id="mJ4_-zEkmCMwK1RZlJ_X-67" value="Non" style="edgeLabel;html=1;align=center;verticalAlign=middle;resizable=0;points=[];" parent="mJ4_-zEkmCMwK1RZlJ_X-66" vertex="1" connectable="0">
          <mxGeometry x="-0.5017" y="-2" relative="1" as="geometry">
            <mxPoint x="15" y="-2" as="offset" />
          </mxGeometry>
        </mxCell>
        <mxCell id="mJ4_-zEkmCMwK1RZlJ_X-68" value="" style="edgeStyle=orthogonalEdgeStyle;rounded=0;orthogonalLoop=1;jettySize=auto;html=1;endArrow=block;endFill=0;endSize=8;" parent="WIyWlLk6GJQsqaUBKTNV-1" source="mJ4_-zEkmCMwK1RZlJ_X-69" target="mJ4_-zEkmCMwK1RZlJ_X-71" edge="1">
          <mxGeometry relative="1" as="geometry" />
        </mxCell>
        <mxCell id="mJ4_-zEkmCMwK1RZlJ_X-69" value="Hospitalisations" style="rhombus;whiteSpace=wrap;html=1;shadow=0;fontFamily=Helvetica;fontSize=12;align=center;strokeWidth=1;spacing=6;spacingTop=-4;" parent="WIyWlLk6GJQsqaUBKTNV-1" vertex="1">
          <mxGeometry x="62" y="1400" width="100" height="80" as="geometry" />
        </mxCell>
        <mxCell id="mJ4_-zEkmCMwK1RZlJ_X-70" value="" style="edgeStyle=orthogonalEdgeStyle;rounded=0;orthogonalLoop=1;jettySize=auto;html=1;endArrow=block;endFill=0;endSize=8;" parent="WIyWlLk6GJQsqaUBKTNV-1" source="mJ4_-zEkmCMwK1RZlJ_X-71" target="mJ4_-zEkmCMwK1RZlJ_X-76" edge="1">
          <mxGeometry relative="1" as="geometry" />
        </mxCell>
        <mxCell id="mJ4_-zEkmCMwK1RZlJ_X-71" value="Saisir le nombre" style="whiteSpace=wrap;html=1;shadow=0;strokeWidth=1;spacing=6;spacingTop=-4;rounded=1;" parent="WIyWlLk6GJQsqaUBKTNV-1" vertex="1">
          <mxGeometry x="213" y="1420" width="120" height="40" as="geometry" />
        </mxCell>
        <mxCell id="mJ4_-zEkmCMwK1RZlJ_X-72" value="" style="edgeStyle=orthogonalEdgeStyle;rounded=0;orthogonalLoop=1;jettySize=auto;html=1;endArrow=block;endFill=0;endSize=8;" parent="WIyWlLk6GJQsqaUBKTNV-1" source="mJ4_-zEkmCMwK1RZlJ_X-76" target="mJ4_-zEkmCMwK1RZlJ_X-77" edge="1">
          <mxGeometry relative="1" as="geometry" />
        </mxCell>
        <mxCell id="mJ4_-zEkmCMwK1RZlJ_X-73" value="Oui" style="edgeLabel;html=1;align=center;verticalAlign=middle;resizable=0;points=[];" parent="mJ4_-zEkmCMwK1RZlJ_X-72" vertex="1" connectable="0">
          <mxGeometry x="-0.0751" relative="1" as="geometry">
            <mxPoint x="-15" y="-12" as="offset" />
          </mxGeometry>
        </mxCell>
        <mxCell id="mJ4_-zEkmCMwK1RZlJ_X-74" value="" style="edgeStyle=orthogonalEdgeStyle;rounded=0;orthogonalLoop=1;jettySize=auto;html=1;entryX=0.5;entryY=0;entryDx=0;entryDy=0;endArrow=block;endFill=0;endSize=8;" parent="WIyWlLk6GJQsqaUBKTNV-1" source="mJ4_-zEkmCMwK1RZlJ_X-76" edge="1">
          <mxGeometry relative="1" as="geometry">
            <mxPoint x="112" y="1560" as="targetPoint" />
            <Array as="points">
              <mxPoint x="463" y="1510" />
              <mxPoint x="112" y="1510" />
            </Array>
          </mxGeometry>
        </mxCell>
        <mxCell id="mJ4_-zEkmCMwK1RZlJ_X-75" value="Non" style="edgeLabel;html=1;align=center;verticalAlign=middle;resizable=0;points=[];" parent="mJ4_-zEkmCMwK1RZlJ_X-74" vertex="1" connectable="0">
          <mxGeometry x="-0.8841" y="-2" relative="1" as="geometry">
            <mxPoint x="-12" as="offset" />
          </mxGeometry>
        </mxCell>
        <mxCell id="mJ4_-zEkmCMwK1RZlJ_X-76" value="Saisir la liste des hospitalisations" style="rhombus;whiteSpace=wrap;html=1;shadow=0;strokeWidth=1;spacing=6;spacingTop=-4;rounded=0;" parent="WIyWlLk6GJQsqaUBKTNV-1" vertex="1">
          <mxGeometry x="388" y="1406" width="150" height="70" as="geometry" />
        </mxCell>
        <mxCell id="mJ4_-zEkmCMwK1RZlJ_X-77" value="Afficher un popup pour saisir la liste des hospitalisations." style="whiteSpace=wrap;html=1;shadow=0;strokeWidth=1;spacing=6;spacingTop=-4;rounded=0;" parent="WIyWlLk6GJQsqaUBKTNV-1" vertex="1">
          <mxGeometry x="633" y="1411" width="120" height="60" as="geometry" />
        </mxCell>
        <mxCell id="mJ4_-zEkmCMwK1RZlJ_X-81" value="" style="edgeStyle=orthogonalEdgeStyle;rounded=0;orthogonalLoop=1;jettySize=auto;html=1;endArrow=block;endFill=0;endSize=8;" parent="WIyWlLk6GJQsqaUBKTNV-1" source="mJ4_-zEkmCMwK1RZlJ_X-78" target="mJ4_-zEkmCMwK1RZlJ_X-80" edge="1">
          <mxGeometry relative="1" as="geometry" />
        </mxCell>
        <mxCell id="mJ4_-zEkmCMwK1RZlJ_X-78" value="Allergies" style="rhombus;whiteSpace=wrap;html=1;shadow=0;fontFamily=Helvetica;fontSize=12;align=center;strokeWidth=1;spacing=6;spacingTop=-4;" parent="WIyWlLk6GJQsqaUBKTNV-1" vertex="1">
          <mxGeometry x="62" y="1560" width="100" height="80" as="geometry" />
        </mxCell>
        <mxCell id="mJ4_-zEkmCMwK1RZlJ_X-83" value="" style="edgeStyle=orthogonalEdgeStyle;rounded=0;orthogonalLoop=1;jettySize=auto;html=1;endArrow=block;endFill=0;endSize=8;" parent="WIyWlLk6GJQsqaUBKTNV-1" source="mJ4_-zEkmCMwK1RZlJ_X-80" target="mJ4_-zEkmCMwK1RZlJ_X-82" edge="1">
          <mxGeometry relative="1" as="geometry" />
        </mxCell>
        <mxCell id="mJ4_-zEkmCMwK1RZlJ_X-80" value="Autres" style="rhombus;whiteSpace=wrap;html=1;shadow=0;fontFamily=Helvetica;fontSize=12;align=center;strokeWidth=1;spacing=6;spacingTop=-4;" parent="WIyWlLk6GJQsqaUBKTNV-1" vertex="1">
          <mxGeometry x="62" y="1720" width="100" height="80" as="geometry" />
        </mxCell>
        <mxCell id="mJ4_-zEkmCMwK1RZlJ_X-82" value="Valider" style="whiteSpace=wrap;html=1;shadow=0;strokeWidth=1;spacing=6;spacingTop=-4;rounded=1;" parent="WIyWlLk6GJQsqaUBKTNV-1" vertex="1">
          <mxGeometry x="52" y="1890" width="120" height="60" as="geometry" />
        </mxCell>
      </root>
    </mxGraphModel>
  </diagram>
</mxfile>
